<svg width="262" height="70" viewBox="0 0 262 70" fill="none" xmlns="http://www.w3.org/2000/svg">
<path d="M6.6 54.35C5.8 54.35 5.1 54.1167 4.5 53.65C3.9 53.1833 3.6 52.1833 3.6 50.65C3.6 49.95 3.85 48.8333 4.35 47.3C4.85 45.7667 5.51667 43.9667 6.35 41.9C7.21667 39.8 8.18333 37.5833 9.25 35.25C10.3167 32.9167 11.4333 30.6 12.6 28.3C13.7667 26 14.9 23.8667 16 21.9C17.1 19.9333 18.1167 18.2667 19.05 16.9C20.0167 15.5 20.8 14.5667 21.4 14.1C22.2667 13.4667 23.1333 13.15 24 13.15C24.4667 13.15 24.9167 13.2 25.35 13.3C25.8167 13.4 26.2 13.5667 26.5 13.8C27.2 14.2333 27.8167 15.0667 28.35 16.3C28.9167 17.5 29.4167 18.95 29.85 20.65C30.3167 22.35 30.7 24.1833 31 26.15C31.3333 28.0833 31.6167 30 31.85 31.9C33.1167 31.7333 33.9833 31.65 34.45 31.65C35.45 31.65 36.3333 31.8 37.1 32.1C37.8667 32.3667 38.2667 32.9333 38.3 33.8C38.3667 34.6333 38.1 35.3333 37.5 35.9C36.9333 36.4667 36.2 36.8833 35.3 37.15C34.9 37.2833 33.9333 37.5 32.4 37.8C32.5 39.5 32.55 40.9333 32.55 42.1C32.55 45.0667 32.3833 47.3667 32.05 49C31.75 50.6333 31.35 51.8 30.85 52.5C30.3833 53.2 29.8833 53.6167 29.35 53.75C28.85 53.9167 28.4 54 28 54C27.9667 54 27.9333 54 27.9 54C26.9333 54 26.2167 53.75 25.75 53.25C25.3167 52.75 25.1 51.9167 25.1 50.75V47.2C25.1 46.1 25.0833 44.8667 25.05 43.5C25.0167 42.1333 24.95 40.6833 24.85 39.15C22.8833 39.4833 20.9167 39.8167 18.95 40.15C17.0167 40.45 15.35 40.7167 13.95 40.95C13.3167 42.45 12.7667 43.8 12.3 45C11.8333 46.1667 11.5167 47.0833 11.35 47.75C10.85 49.3833 10.3833 50.6667 9.95 51.6C9.51667 52.5 9.1 53.1333 8.7 53.5C8.33333 53.9 7.98333 54.1333 7.65 54.2C7.31667 54.3 6.96667 54.35 6.6 54.35ZM16.7 34.8C18.1 34.4667 19.45 34.1667 20.75 33.9C22.05 33.6 23.2833 33.3333 24.45 33.1C24.2833 31.0333 24.0833 29.0167 23.85 27.05C23.6167 25.0833 23.35 23.3333 23.05 21.8C22.1833 23.4667 21.1667 25.4667 20 27.8C18.8667 30.1 17.7667 32.4333 16.7 34.8ZM66.3645 26.25C68.1978 21.8833 69.8145 17.3833 71.2145 12.75C71.4811 11.8167 71.8645 11.1 72.3645 10.6C72.8978 10.1 73.6311 9.85 74.5645 9.85C75.3311 9.85 75.9145 10.0833 76.3145 10.55C76.7145 10.9833 76.9145 11.5833 76.9145 12.35C76.9145 12.9833 76.6478 14.1167 76.1145 15.75C75.5811 17.35 74.9311 19.3833 74.1645 21.85C73.3978 24.3167 72.6311 27.1667 71.8645 30.4C71.0978 33.6333 70.4478 37.1833 69.9145 41.05C69.3811 44.9167 69.1145 49.05 69.1145 53.45C69.1145 54.65 68.8811 55.6333 68.4145 56.4C67.9811 57.2 67.2145 57.6 66.1145 57.6C64.9145 57.6 64.0311 57.1833 63.4645 56.35C62.9311 55.5167 62.6645 54.45 62.6645 53.15C62.6645 50.5833 62.7478 48.45 62.9145 46.75C63.1145 45.0167 63.3145 43.5333 63.5145 42.3C61.8811 45.1 60.1478 47.5167 58.3145 49.55C56.5145 51.55 54.7811 53.0833 53.1145 54.15C51.4478 55.25 50.0145 55.8 48.8145 55.8C46.8478 55.8 45.2478 55.25 44.0145 54.15C42.7811 53.05 42.1645 51.3833 42.1645 49.15C42.1645 47.4167 42.5811 45.6333 43.4145 43.8C44.2478 41.9333 45.3478 40.1 46.7145 38.3C48.0811 36.5 49.5811 34.8167 51.2145 33.25C52.8811 31.65 54.5478 30.25 56.2145 29.05C57.8811 27.8167 59.4311 26.85 60.8645 26.15C62.2978 25.45 63.4645 25.1 64.3645 25.1C65.3645 25.1 66.0311 25.4833 66.3645 26.25ZM65.2145 28.95C65.0145 29.0833 64.7978 29.2167 64.5645 29.35C64.3645 29.45 64.1645 29.5667 63.9645 29.7C62.6978 30.5 61.3478 31.4667 59.9145 32.6C58.4811 33.7 57.0645 34.9333 55.6645 36.3C54.2645 37.6333 52.9811 39.0333 51.8145 40.5C50.6811 41.9333 49.7645 43.3667 49.0645 44.8C48.3978 46.2 48.0645 47.55 48.0645 48.85C48.0645 49.0833 48.1645 49.25 48.3645 49.35C48.5645 49.45 48.7478 49.5 48.9145 49.5C50.0811 49.5 51.3311 48.9833 52.6645 47.95C54.0311 46.9167 55.4145 45.4833 56.8145 43.65C58.2478 41.7833 59.6645 39.6 61.0645 37.1C62.4978 34.6 63.8811 31.8833 65.2145 28.95ZM90.8438 55.2C89.0104 55.2 87.3771 54.7 85.9438 53.7C84.5104 52.7333 83.3771 51.3667 82.5438 49.6C81.7438 47.8333 81.3438 45.7667 81.3438 43.4C81.3438 40.8667 81.6438 38.4 82.2438 36C82.8438 33.5667 83.6104 31.3833 84.5438 29.45C85.4771 27.4833 86.4104 25.9333 87.3438 24.8C88.3104 23.6333 89.1438 23.05 89.8438 23.05C90.5771 23.05 91.1771 23.2667 91.6438 23.7C92.1438 24.1333 92.3938 24.7833 92.3938 25.65C92.3938 25.7833 92.2438 26.2667 91.9438 27.1C91.6771 27.9 91.3271 28.9333 90.8938 30.2C90.4604 31.4333 90.0271 32.8167 89.5938 34.35C89.1604 35.85 88.7938 37.3833 88.4938 38.95C88.2271 40.5167 88.0938 42.0167 88.0938 43.45C88.0938 45.1833 88.3604 46.5667 88.8938 47.6C89.4271 48.6333 90.5771 49.15 92.3438 49.15C94.1438 49.15 95.8938 48.6333 97.5938 47.6C99.3271 46.5667 100.994 45.1833 102.594 43.45C104.194 41.6833 105.727 39.7167 107.194 37.55C105.46 37.6833 103.827 37.75 102.294 37.75C101.26 37.75 100.51 37.65 100.044 37.45C99.5771 37.2167 99.2771 36.9167 99.1438 36.55C99.0438 36.1833 98.9938 35.75 98.9938 35.25C98.9938 34.55 99.3104 33.9167 99.9438 33.35C100.577 32.7833 101.277 32.4833 102.044 32.45C103.477 32.35 104.927 32.2333 106.394 32.1C107.894 31.9667 109.377 31.8167 110.844 31.65C111.944 29.6833 112.96 27.7333 113.894 25.8C114.86 23.8333 115.744 21.9833 116.544 20.25C117.31 18.0833 118.127 16.0833 118.994 14.25C119.894 12.3833 120.76 10.8833 121.594 9.75C122.427 8.61666 123.21 8.05 123.944 8.05C124.81 8.05 125.46 8.28333 125.894 8.75C126.36 9.21666 126.594 9.83333 126.594 10.6C126.594 10.8333 126.427 11.5167 126.094 12.65C125.76 13.7833 125.294 15.25 124.694 17.05C124.127 18.85 123.477 20.8833 122.744 23.15C122.044 25.3833 121.294 27.75 120.494 30.25C123.66 29.7167 126.544 29.2 129.144 28.7C131.777 28.2 133.927 27.7833 135.594 27.45C137.26 27.1167 138.26 26.95 138.594 26.95C139.26 26.95 139.81 27.2667 140.244 27.9C140.677 28.5 140.894 29.0833 140.894 29.65C140.894 29.9833 140.277 30.4167 139.044 30.95C137.844 31.4833 136.194 32.0667 134.094 32.7C132.027 33.3 129.66 33.9167 126.994 34.55C124.36 35.15 121.594 35.6833 118.694 36.15C117.894 38.7833 117.127 41.3667 116.394 43.9C115.694 46.4 115.094 48.7167 114.594 50.85C114.36 51.7833 113.977 52.5 113.444 53C112.944 53.4667 112.26 53.7 111.394 53.7C110.494 53.7 109.827 53.4833 109.394 53.05C108.96 52.65 108.744 51.9167 108.744 50.85C108.744 50.75 108.844 50.2 109.044 49.2C109.277 48.1667 109.56 46.9 109.894 45.4C110.26 43.8667 110.61 42.3 110.944 40.7C108.977 43.4333 106.894 45.9 104.694 48.1C102.494 50.3 100.227 52.0333 97.8938 53.3C95.5604 54.5667 93.2104 55.2 90.8438 55.2ZM90.9938 19.6C89.8938 19.6 88.9938 19.2667 88.2938 18.6C87.5938 17.9 87.2438 17.0833 87.2438 16.15C87.2438 15.0167 87.6604 14.05 88.4938 13.25C89.3604 12.45 90.3771 12.05 91.5438 12.05C92.8438 12.05 93.8271 12.4 94.4938 13.1C95.1938 13.8 95.5438 14.7333 95.5438 15.9C95.5438 16.7333 95.1104 17.5667 94.2438 18.4C93.3771 19.2 92.2938 19.6 90.9938 19.6ZM138.07 69.75C136.203 69.75 134.503 69.6333 132.97 69.4C131.436 69.2 129.936 68.8667 128.47 68.4C127.003 67.9333 125.42 67.3167 123.72 66.55C123.02 66.2167 122.436 65.8667 121.97 65.5C121.503 65.1333 121.27 64.5833 121.27 63.85C121.27 62.7833 121.603 61.9667 122.27 61.4C122.903 60.8667 123.786 60.6 124.92 60.6C125.52 60.6 126.286 60.8 127.22 61.2C128.153 61.6333 129.22 62.1167 130.42 62.65C131.653 63.2167 133.02 63.7 134.52 64.1C136.02 64.5333 137.636 64.75 139.37 64.75C141.136 64.75 142.786 64.0167 144.32 62.55C145.853 61.0833 147.086 59.0167 148.02 56.35C148.986 53.7167 149.47 50.6 149.47 47C149.47 46.1667 149.453 45.2667 149.42 44.3C149.386 43.3 149.353 42.25 149.32 41.15C148.12 43.4167 146.82 45.5333 145.42 47.5C144.02 49.4667 142.57 51.0667 141.07 52.3C139.603 53.5 138.12 54.1 136.62 54.1C134.786 54.1 133.453 53.6667 132.62 52.8C131.82 51.9 131.42 50.4833 131.42 48.55C131.42 46.9167 131.536 45.1333 131.77 43.2C132.036 41.2333 132.386 39.25 132.82 37.25C133.253 35.25 133.753 33.35 134.32 31.55C134.92 29.7167 135.553 28.1333 136.22 26.8C136.72 25.8333 137.486 25.35 138.52 25.35C139.186 25.35 139.853 25.6667 140.52 26.3C141.22 26.9333 141.57 27.7833 141.57 28.85C141.57 29.45 141.42 30.3167 141.12 31.45C140.82 32.5833 140.453 33.8667 140.02 35.3C139.62 36.7 139.203 38.1833 138.77 39.75C138.336 41.2833 137.97 42.8 137.67 44.3C137.37 45.7667 137.22 47.1 137.22 48.3C137.22 48.4333 137.32 48.5 137.52 48.5C137.92 48.5 138.453 48.1667 139.12 47.5C139.82 46.8 140.586 45.9 141.42 44.8C142.286 43.6667 143.153 42.4333 144.02 41.1C144.92 39.7333 145.786 38.3833 146.62 37.05C147.453 35.7167 148.203 34.5 148.87 33.4C148.77 32.8667 148.703 32.4 148.67 32C148.67 31.5667 148.67 31.2 148.67 30.9C148.67 29.5333 148.903 28.4 149.37 27.5C149.87 26.6 150.836 26.15 152.27 26.15C153.203 26.15 153.92 26.5 154.42 27.2C154.92 27.8667 155.17 28.8167 155.17 30.05C155.17 30.5833 155.086 31.2 154.92 31.9C154.753 32.5667 154.42 33.6333 153.92 35.1L154.47 33.55C154.77 36.55 155.02 39.2167 155.22 41.55C155.453 43.8833 155.57 46.2 155.57 48.5C155.57 52.8333 154.836 56.5833 153.37 59.75C151.936 62.95 149.903 65.4167 147.27 67.15C144.67 68.8833 141.603 69.75 138.07 69.75ZM169.527 53.2C167.427 53.2 165.894 52.5667 164.927 51.3C163.994 50 163.527 48.35 163.527 46.35C163.527 44.45 163.944 42.6167 164.777 40.85C165.61 39.05 166.727 37.3333 168.127 35.7C169.527 34.0667 171.094 32.55 172.827 31.15C174.56 29.7167 176.31 28.4333 178.077 27.3C179.877 26.1333 181.594 25.15 183.227 24.35C184.86 23.5167 186.277 22.8833 187.477 22.45C188.677 22.0167 189.544 21.8 190.077 21.8C190.644 21.8 191.11 21.95 191.477 22.25C191.877 22.5167 192.077 23.05 192.077 23.85C192.077 24.6833 191.744 25.4333 191.077 26.1C190.41 26.7667 189.594 27.3333 188.627 27.8C187.26 28.4667 185.71 29.2833 183.977 30.25C182.277 31.1833 180.56 32.25 178.827 33.45C177.094 34.65 175.494 35.9333 174.027 37.3C172.594 38.6667 171.427 40.1 170.527 41.6C169.627 43.0667 169.177 44.5667 169.177 46.1C169.177 46.4333 169.244 46.7 169.377 46.9C169.51 47.1 169.794 47.2 170.227 47.2C170.794 47.2 171.544 46.9333 172.477 46.4C173.41 45.8333 174.427 45.1 175.527 44.2C176.627 43.2667 177.727 42.25 178.827 41.15C179.927 40.0167 180.944 38.8833 181.877 37.75C182.844 36.5833 183.644 35.5 184.277 34.5C184.744 33.7333 185.294 33.1 185.927 32.6C186.594 32.1 187.277 31.85 187.977 31.85C188.544 31.85 189.01 32.0167 189.377 32.35C189.777 32.65 189.977 33.2 189.977 34C189.977 34.2667 189.96 34.9 189.927 35.9C189.894 36.8667 189.844 38.05 189.777 39.45C189.744 40.8167 189.727 42.25 189.727 43.75C189.727 45.05 189.844 46.1833 190.077 47.15C190.344 48.0833 190.894 48.55 191.727 48.55C192.727 48.55 193.76 48.2 194.827 47.5C195.894 46.7667 196.927 45.85 197.927 44.75C198.96 43.6167 199.91 42.4167 200.777 41.15C201.644 39.8833 202.377 38.6833 202.977 37.55C203.61 36.3833 204.06 35.45 204.327 34.75C204.76 31.8167 205.327 29.5167 206.027 27.85C206.727 26.15 207.494 24.95 208.327 24.25C209.194 23.55 210.027 23.2 210.827 23.2C211.727 23.2 212.477 23.4167 213.077 23.85C213.71 24.2833 214.027 25.3 214.027 26.9C214.027 27.7333 213.677 28.9833 212.977 30.65C212.277 32.3167 211.344 34.15 210.177 36.15C209.91 37.65 209.744 39.2 209.677 40.8C209.61 42.4 209.71 43.9 209.977 45.3C210.877 44.6667 211.794 43.7333 212.727 42.5C213.66 41.2333 214.594 39.8333 215.527 38.3C216.46 36.7333 217.394 35.1667 218.327 33.6C219.26 32 220.177 30.5333 221.077 29.2C222.01 27.8667 222.91 26.8 223.777 26C224.677 25.1667 225.56 24.75 226.427 24.75C227.327 24.75 228.144 24.9167 228.877 25.25C229.644 25.55 230.277 26.15 230.777 27.05C231.31 27.9167 231.71 29.1667 231.977 30.8C232.277 32.4 232.427 34.5 232.427 37.1C232.427 38.4667 232.56 39.8 232.827 41.1C233.094 42.3667 233.544 43.4167 234.177 44.25C234.81 45.05 235.694 45.45 236.827 45.45C238.66 45.45 240.294 45.15 241.727 44.55C243.16 43.9167 244.41 43.1833 245.477 42.35C246.544 41.5167 247.427 40.8 248.127 40.2C248.86 39.5667 249.427 39.25 249.827 39.25C250.494 39.25 250.994 39.45 251.327 39.85C251.694 40.2167 251.877 40.6833 251.877 41.25C251.877 41.5833 251.594 42.1667 251.027 43C250.494 43.8 249.744 44.7 248.777 45.7C247.844 46.6667 246.744 47.6167 245.477 48.55C244.244 49.45 242.927 50.2 241.527 50.8C240.127 51.4 238.71 51.7 237.277 51.7C234.677 51.7 232.527 51.2333 230.827 50.3C229.16 49.3333 227.91 47.7333 227.077 45.5C226.277 43.2333 225.877 40.1833 225.877 36.35C225.877 36.1167 225.877 35.9 225.877 35.7C225.877 35.5 225.877 35.3 225.877 35.1C225.877 34.2667 225.86 33.55 225.827 32.95C225.827 32.35 225.744 31.8833 225.577 31.55C225.044 32.45 224.394 33.5833 223.627 34.95C222.894 36.3167 222.077 37.7833 221.177 39.35C220.277 40.9167 219.31 42.4667 218.277 44C217.277 45.5333 216.26 46.9333 215.227 48.2C214.194 49.4667 213.16 50.4833 212.127 51.25C211.127 52.0167 210.177 52.4 209.277 52.4C208.61 52.4 207.877 52.0667 207.077 51.4C206.31 50.7333 205.66 49.8333 205.127 48.7C204.594 47.5333 204.327 46.2167 204.327 44.75C202.894 46.55 201.41 48.2 199.877 49.7C198.344 51.1667 196.827 52.3333 195.327 53.2C193.86 54.1 192.46 54.55 191.127 54.55C190.027 54.55 188.96 54.2333 187.927 53.6C186.927 52.9667 186.06 51.8333 185.327 50.2C184.594 48.5667 184.127 46.25 183.927 43.25C182.36 45.2167 180.727 46.95 179.027 48.45C177.36 49.95 175.71 51.1167 174.077 51.95C172.477 52.7833 170.96 53.2 169.527 53.2Z" fill="#222222"/>
<circle cx="258.5" cy="49.5" r="3.5" fill="#222222"/>
</svg>
