<svg width="69" height="69" viewBox="0 0 69 69" fill="none" xmlns="http://www.w3.org/2000/svg">
<path fill-rule="evenodd" clip-rule="evenodd" d="M34.5 69C53.5538 69 69 53.5538 69 34.5C69 15.4462 53.5538 0 34.5 0C15.4462 0 0 15.4462 0 34.5C0 53.5538 15.4462 69 34.5 69ZM18 53.2C17.2 53.2 16.5 52.9667 15.9 52.5C15.3 52.0333 15 51.0333 15 49.5C15 48.8 15.25 47.6833 15.75 46.15C16.25 44.6167 16.9167 42.8167 17.75 40.75C18.6167 38.65 19.5833 36.4333 20.65 34.1C21.7167 31.7667 22.8333 29.45 24 27.15C25.1667 24.85 26.3 22.7167 27.4 20.75C28.5 18.7833 29.5167 17.1167 30.45 15.75C31.4167 14.35 32.2 13.4167 32.8 12.95C33.6667 12.3167 34.5333 12 35.4 12C35.8667 12 36.3167 12.05 36.75 12.15C37.2167 12.25 37.6 12.4167 37.9 12.65C38.6 13.0833 39.2167 13.9167 39.75 15.15C40.3167 16.35 40.8167 17.8 41.25 19.5C41.7167 21.2 42.1 23.0333 42.4 25C42.7333 26.9333 43.0167 28.85 43.25 30.75C44.5167 30.5833 45.3833 30.5 45.85 30.5C46.85 30.5 47.7333 30.65 48.5 30.95C49.2667 31.2167 49.6667 31.7833 49.7 32.65C49.7667 33.4833 49.5 34.1833 48.9 34.75C48.3333 35.3167 47.6 35.7333 46.7 36C46.3 36.1333 45.3333 36.35 43.8 36.65C43.9 38.35 43.95 39.7833 43.95 40.95C43.95 43.9167 43.7833 46.2167 43.45 47.85C43.15 49.4833 42.75 50.65 42.25 51.35C41.7833 52.05 41.2833 52.4667 40.75 52.6C40.25 52.7667 39.8 52.85 39.4 52.85H39.3C38.3333 52.85 37.6167 52.6 37.15 52.1C36.7167 51.6 36.5 50.7667 36.5 49.6V46.05C36.5 44.95 36.4833 43.7167 36.45 42.35C36.4167 40.9833 36.35 39.5333 36.25 38L30.35 39C28.4167 39.3 26.75 39.5667 25.35 39.8C24.7167 41.3 24.1667 42.65 23.7 43.85C23.2333 45.0167 22.9167 45.9333 22.75 46.6C22.25 48.2333 21.7833 49.5167 21.35 50.45C20.9167 51.35 20.5 51.9833 20.1 52.35C19.7333 52.75 19.3833 52.9833 19.05 53.05C18.7167 53.15 18.3667 53.2 18 53.2ZM28.1 33.65C29.5 33.3167 30.85 33.0167 32.15 32.75C33.45 32.45 34.6833 32.1833 35.85 31.95C35.6833 29.8833 35.4833 27.8667 35.25 25.9C35.0167 23.9333 34.75 22.1833 34.45 20.65C33.5833 22.3167 32.5667 24.3167 31.4 26.65C30.2667 28.95 29.1667 31.2833 28.1 33.65ZM49.6728 51.8501C49.1202 51.8501 48.6032 51.6691 48.1219 51.3072C47.6407 50.9453 47.4 50.3549 47.4 49.5358C47.4 48.9072 47.5515 48.4025 47.8546 48.0215C48.1576 47.6215 48.5052 47.3263 48.8974 47.1358C49.3073 46.9453 49.6549 46.8501 49.9401 46.8501C50.2432 46.8501 50.5818 46.9263 50.9562 47.0787C51.3483 47.212 51.687 47.4691 51.9722 47.8501C52.2574 48.212 52.4 48.7358 52.4 49.4215C52.4 50.0882 52.1326 50.6596 51.5979 51.1358C51.081 51.612 50.4392 51.8501 49.6728 51.8501Z" fill="#222222"/>
</svg>
